<?xml version="1.0" encoding="UTF-8" standalone="no"?>
<svg width="35px" height="11px" viewBox="0 0 35 11" version="1.1" xmlns="http://www.w3.org/2000/svg" xmlns:xlink="http://www.w3.org/1999/xlink">
    <!-- Generator: sketchtool 3.6.1 (26313) - http://www.bohemiancoding.com/sketch -->
    <title>92374A93-6AE1-46B8-B286-A8D0F6CBCBF5</title>
    <desc>Created with sketchtool.</desc>
    <defs></defs>
    <g id="Home" stroke="none" stroke-width="1" fill="none" fill-rule="evenodd">
        <g id="sam-mainsite---cart" transform="translate(-1193.000000, -752.000000)">
            <g id="arrow-outright" transform="translate(1193.000000, 740.000000)">
                <g id="Group">
                    <g id="icomoon-ignore"></g>
                    <path d="M31.6458333,13.1355 C31.2491667,12.6303333 30.5153333,12.5393333 30.009,12.9371667 C29.5015,13.335 29.4128333,14.0676667 29.8106667,14.5751667 L31.1896667,16.3333333 L1.41516667,16.3333333 C0.77,16.3333333 0.2485,16.8548333 0.2485,17.5 C0.2485,18.1451667 0.77,18.6666667 1.41516667,18.6666667 L31.1896667,18.6666667 L29.8095,20.426 C29.4116667,20.9358333 29.5003333,21.6661667 30.0078333,22.064 C30.2236667,22.2331667 30.4733333,22.3113333 30.7265,22.3113333 C31.073,22.3113333 31.416,22.1585 31.6458333,21.8656667 L34.5018333,18.2198333 C34.8355,17.7986667 34.8355,17.2036667 34.503,16.7813333 L31.6458333,13.1355 Z" id="Shape" fill="#FFFFFF"></path>
                </g>
            </g>
        </g>
    </g>
</svg>