<?xml version="1.0" encoding="UTF-8" standalone="no"?>
<svg width="22px" height="22px" viewBox="0 0 22 22" version="1.1" xmlns="http://www.w3.org/2000/svg" xmlns:xlink="http://www.w3.org/1999/xlink">
    <!-- Generator: sketchtool 3.6.1 (26313) - http://www.bohemiancoding.com/sketch -->
    <title>52890E7A-281D-4937-98A6-FD7984446695</title>
    <desc>Created with sketchtool.</desc>
    <defs></defs>
    <g id="Home" stroke="none" stroke-width="1" fill="none" fill-rule="evenodd">
        <g id="sam-mainsite---cart" transform="translate(-144.000000, -614.000000)">
            <g id="close-window" transform="translate(144.000000, 614.000000)">
                <g id="Group">
                    <g id="icomoon-ignore"></g>
                    <path d="M11,0.458333333 C5.18613333,0.458333333 0.458333333,5.18686667 0.458333333,11 C0.458333333,16.8138667 5.18613333,21.5416667 11,21.5416667 C16.8138667,21.5416667 21.5416667,16.8138667 21.5416667,11 C21.5416667,5.18686667 16.8138667,0.458333333 11,0.458333333 L11,0.458333333 Z M14.8888667,14.2413333 C15.0678,14.4202667 15.0678,14.7106667 14.8888667,14.8888667 C14.8001333,14.9790667 14.6828,15.0245333 14.5654667,15.0245333 C14.4488667,15.0245333 14.3315333,14.9790667 14.2420667,14.8888667 L11.0014667,11.649 L7.76086667,14.8888667 C7.6714,14.9790667 7.55406667,15.0245333 7.43673333,15.0245333 C7.32013333,15.0245333 7.2028,14.9790667 7.11333333,14.8888667 C6.9344,14.7099333 6.9344,14.4202667 7.11333333,14.2413333 L10.3532,11 L7.1126,7.76013333 C6.93366667,7.5812 6.93366667,7.29006667 7.1126,7.11113333 C7.29153333,6.9322 7.58193333,6.9322 7.76086667,7.11113333 L11.0014667,10.3524667 L14.2420667,7.11113333 C14.421,6.9322 14.7114,6.9322 14.8903333,7.11113333 C15.0692667,7.29006667 15.0692667,7.5812 14.8903333,7.76013333 L11.6497333,11 L14.8888667,14.2413333 L14.8888667,14.2413333 Z" id="Shape" fill="#DDDDDD"></path>
                </g>
            </g>
        </g>
    </g>
</svg>