<svg xmlns="http://www.w3.org/2000/svg" xmlns:xlink="http://www.w3.org/1999/xlink" width="240" height="45" viewBox="0 0 240 45" version="1.1"><title>sampression_logo</title><desc>Created with Sketch.</desc><defs><path id="path-1" d="M0 0.12L42.88 0.12 42.88 43 0 43 0 0.12Z"/></defs><g id="Home" stroke="none" stroke-width="1" fill="none" fill-rule="evenodd"><g id="sam-mainsite---logo" transform="translate(-370.000000, -184.000000)"><g id="sampression_logo" transform="translate(371.000000, 185.000000)"><g id="shape"><path d="M42.88 21.56C42.88 33.4 33.28 43 21.44 43 9.6 43 0 33.4 0 21.56 0 9.72 9.6 0.12 21.44 0.12 33.28 0.12 42.88 9.72 42.88 21.56M25.9 8.39C25.9 9.22 25.22 9.9 24.39 9.9 23.55 9.9 22.87 9.22 22.87 8.39 22.87 7.55 23.55 6.87 24.39 6.87 25.22 6.87 25.9 7.55 25.9 8.39" id="Fill-1" stroke="#57B94A" fill="#57B94A"/><mask id="mask-2" fill="white"><use xlink:href="#path-1"/></mask><g id="Clip-6"/><path d="M11.51 10.86L29.88 10.86 29.95 10.86C30.65 10.86 31.22 11.56 31.22 12.25 31.22 12.94 30.62 13.65 29.92 13.65L27.88 13.65 27.82 13.65 27.83 31.51C27.83 32.2 27.37 32.71 26.68 32.71 25.99 32.71 25.47 31.97 25.47 31.28L25.47 31.42 25.47 22.59 25.4 22.59 19.84 22.59C18.18 24.82 14.21 26.3 14.21 26.3L28.2 35.18C28.56 35.45 28.88 35.83 28.88 36.34 28.88 37.02 28.35 37.58 27.69 37.58 27.42 37.58 27.34 37.53 26.99 37.33L27.01 37.35 11.83 27.53C11.29 27.22 10.87 26.72 10.87 26.06 10.87 25.17 11.54 24.55 12.37 24.34 18.53 22.7 18.21 19.85 18.21 19.85L18.21 15.57 18.21 15.46C18.21 14.52 17.53 13.65 16.53 13.65L11.66 13.65C10.95 13.65 10.36 12.99 10.36 12.3 10.36 11.61 10.97 10.92 11.67 10.92L11.51 10.86ZM25.47 13.65L21 13.65 21 19.8 25.47 19.8 25.47 13.65Z" id="Fill-5" fill="#FFFFFF" mask="url(#mask-2)"/></g><g id="typo" transform="translate(50.000000, 10.000000)" fill="#57B94A"><path d="M11.07 4.45C10.19 3.16 8.91 2.52 7.23 2.52 6.71 2.52 6.2 2.59 5.69 2.73 5.19 2.87 4.74 3.08 4.33 3.37 3.93 3.66 3.61 4.04 3.37 4.49 3.13 4.95 3 5.49 3 6.1 3 7 3.26 7.7 3.76 8.19 4.26 8.68 4.89 9.09 5.64 9.41 6.38 9.73 7.2 10.01 8.09 10.26 8.97 10.51 9.79 10.85 10.54 11.27 11.28 11.69 11.91 12.25 12.41 12.94 12.92 13.63 13.17 14.57 13.17 15.76 13.17 16.66 12.98 17.47 12.59 18.19 12.21 18.9 11.71 19.51 11.08 19.99 10.46 20.48 9.76 20.85 8.98 21.11 8.21 21.37 7.43 21.5 6.64 21.5 5.43 21.5 4.28 21.28 3.19 20.82 2.09 20.36 1.17 19.61 0.4 18.56L2.22 17.25C2.65 17.98 3.25 18.56 4.01 19 4.78 19.44 5.68 19.66 6.73 19.66 7.23 19.66 7.74 19.58 8.24 19.42 8.74 19.26 9.2 19.03 9.6 18.72 10 18.41 10.33 18.03 10.59 17.58 10.85 17.14 10.98 16.62 10.98 16.04 10.98 15.35 10.84 14.78 10.55 14.32 10.26 13.86 9.88 13.48 9.4 13.17 8.93 12.87 8.38 12.61 7.78 12.4 7.17 12.2 6.55 11.99 5.9 11.79 5.26 11.58 4.63 11.35 4.03 11.09 3.42 10.83 2.88 10.5 2.4 10.09 1.93 9.69 1.54 9.19 1.25 8.58 0.96 7.98 0.82 7.21 0.82 6.3 0.82 5.35 1 4.52 1.37 3.81 1.73 3.1 2.22 2.51 2.82 2.04 3.43 1.58 4.11 1.23 4.88 1.01 5.65 0.78 6.43 0.67 7.23 0.67 8.35 0.67 9.37 0.85 10.28 1.2 11.2 1.56 12.05 2.18 12.83 3.08L11.07 4.45ZM19.86 13.94L28.46 13.94 24.17 3.53 19.86 13.94ZM16.92 21L14.57 21 23.19 1.18 25.15 1.18 33.78 21 31.42 21 29.24 15.79 19.1 15.79 16.92 21ZM46.24 17.3L52.93 1.18 56.01 1.18 56.01 21 53.99 21 53.99 3.86 53.94 3.86 46.77 21 45.7 21 38.54 3.86 38.48 3.86 38.48 21 36.46 21 36.46 1.18 39.54 1.18 46.24 17.3ZM63.4 9.94L66.65 9.94C67.54 9.94 68.3 9.85 68.93 9.66 69.56 9.47 70.05 9.23 70.43 8.92 70.8 8.61 71.07 8.25 71.24 7.83 71.41 7.41 71.49 6.95 71.49 6.47 71.49 6 71.41 5.56 71.24 5.14 71.07 4.72 70.8 4.35 70.43 4.03 70.05 3.71 69.56 3.47 68.93 3.29 68.3 3.11 67.54 3.02 66.65 3.02L63.4 3.02 63.4 9.94ZM61.38 1.18L67.15 1.18C69.17 1.18 70.76 1.61 71.93 2.49 73.09 3.37 73.68 4.69 73.68 6.47 73.68 8.24 73.09 9.57 71.93 10.46 70.76 11.34 69.17 11.79 67.15 11.79L63.4 11.79 63.4 21 61.38 21 61.38 1.18ZM79.47 9.94L83.06 9.94C83.95 9.94 84.71 9.85 85.34 9.66 85.96 9.47 86.46 9.23 86.84 8.92 87.21 8.61 87.48 8.25 87.65 7.83 87.82 7.41 87.9 6.95 87.9 6.47 87.9 6 87.82 5.56 87.65 5.14 87.48 4.72 87.21 4.35 86.84 4.03 86.46 3.71 85.96 3.47 85.34 3.29 84.71 3.11 83.95 3.02 83.06 3.02L79.47 3.02 79.47 9.94ZM79.47 21L77.46 21 77.46 1.18 83.56 1.18C85.58 1.18 87.17 1.61 88.33 2.49 89.5 3.37 90.08 4.69 90.08 6.47 90.08 7.85 89.65 9.01 88.78 9.95 87.91 10.9 86.66 11.44 85.02 11.59L90.73 21 88.26 21 82.83 11.79 79.47 11.79 79.47 21ZM96.08 19.15L106.69 19.15 106.69 21 94.06 21 94.06 1.18 106.35 1.18 106.35 3.02 96.08 3.02 96.08 9.77 105.68 9.77 105.68 11.62 96.08 11.62 96.08 19.15ZM120.04 4.45C119.17 3.16 117.89 2.52 116.21 2.52 115.69 2.52 115.17 2.59 114.67 2.73 114.16 2.87 113.71 3.08 113.31 3.37 112.91 3.66 112.59 4.04 112.34 4.49 112.1 4.95 111.98 5.49 111.98 6.1 111.98 7 112.23 7.7 112.74 8.19 113.24 8.68 113.87 9.09 114.61 9.41 115.36 9.73 116.18 10.01 117.06 10.26 117.95 10.51 118.77 10.85 119.51 11.27 120.26 11.69 120.88 12.25 121.39 12.94 121.89 13.63 122.14 14.57 122.14 15.76 122.14 16.66 121.95 17.47 121.57 18.19 121.19 18.9 120.68 19.51 120.06 19.99 119.43 20.48 118.73 20.85 117.96 21.11 117.18 21.37 116.4 21.5 115.62 21.5 114.41 21.5 113.25 21.28 112.16 20.82 111.07 20.36 110.14 19.61 109.38 18.56L111.2 17.25C111.63 17.98 112.22 18.56 112.99 19 113.75 19.44 114.66 19.66 115.7 19.66 116.21 19.66 116.71 19.58 117.22 19.42 117.72 19.26 118.17 19.03 118.57 18.72 118.98 18.41 119.31 18.03 119.57 17.58 119.83 17.14 119.96 16.62 119.96 16.04 119.96 15.35 119.82 14.78 119.53 14.32 119.24 13.86 118.85 13.48 118.38 13.17 117.9 12.87 117.36 12.61 116.75 12.4 116.15 12.2 115.52 11.99 114.88 11.79 114.23 11.58 113.61 11.35 113 11.09 112.4 10.83 111.85 10.5 111.38 10.09 110.9 9.69 110.52 9.19 110.23 8.58 109.94 7.98 109.8 7.21 109.8 6.3 109.8 5.35 109.98 4.52 110.34 3.81 110.71 3.1 111.19 2.51 111.8 2.04 112.4 1.58 113.09 1.23 113.86 1.01 114.62 0.78 115.41 0.67 116.21 0.67 117.33 0.67 118.35 0.85 119.26 1.2 120.17 1.56 121.02 2.18 121.81 3.08L120.04 4.45ZM135.61 4.45C134.73 3.16 133.46 2.52 131.78 2.52 131.25 2.52 130.74 2.59 130.24 2.73 129.73 2.87 129.28 3.08 128.88 3.37 128.48 3.66 128.15 4.04 127.91 4.49 127.67 4.95 127.55 5.49 127.55 6.1 127.55 7 127.8 7.7 128.3 8.19 128.81 8.68 129.43 9.09 130.18 9.41 130.93 9.73 131.74 10.01 132.63 10.26 133.52 10.51 134.33 10.85 135.08 11.27 135.83 11.69 136.45 12.25 136.96 12.94 137.46 13.63 137.71 14.57 137.71 15.76 137.71 16.66 137.52 17.47 137.14 18.19 136.76 18.9 136.25 19.51 135.63 19.99 135 20.48 134.3 20.85 133.53 21.11 132.75 21.37 131.97 21.5 131.19 21.5 129.97 21.5 128.82 21.28 127.73 20.82 126.64 20.36 125.71 19.61 124.94 18.56L126.76 17.25C127.19 17.98 127.79 18.56 128.56 19 129.32 19.44 130.23 19.66 131.27 19.66 131.78 19.66 132.28 19.58 132.78 19.42 133.29 19.26 133.74 19.03 134.14 18.72 134.54 18.41 134.87 18.03 135.14 17.58 135.4 17.14 135.53 16.62 135.53 16.04 135.53 15.35 135.38 14.78 135.09 14.32 134.8 13.86 134.42 13.48 133.95 13.17 133.47 12.87 132.93 12.61 132.32 12.4 131.72 12.2 131.09 11.99 130.45 11.79 129.8 11.58 129.18 11.35 128.57 11.09 127.96 10.83 127.42 10.5 126.95 10.09 126.47 9.69 126.09 9.19 125.8 8.58 125.51 7.98 125.36 7.21 125.36 6.3 125.36 5.35 125.55 4.52 125.91 3.81 126.27 3.1 126.76 2.51 127.37 2.04 127.97 1.58 128.66 1.23 129.42 1.01 130.19 0.78 130.97 0.67 131.78 0.67 132.9 0.67 133.91 0.85 134.83 1.2 135.74 1.56 136.59 2.18 137.38 3.08L135.61 4.45ZM143.82 21L141.8 21 141.8 1.18 143.82 1.18 143.82 21ZM166.33 11.09C166.33 9.95 166.14 8.86 165.77 7.83 165.39 6.79 164.86 5.88 164.16 5.1 163.46 4.31 162.6 3.69 161.6 3.22 160.59 2.75 159.45 2.52 158.18 2.52 156.91 2.52 155.77 2.75 154.76 3.22 153.76 3.69 152.9 4.31 152.2 5.1 151.5 5.88 150.97 6.79 150.59 7.83 150.22 8.86 150.03 9.95 150.03 11.09 150.03 12.23 150.22 13.31 150.59 14.35 150.97 15.39 151.5 16.3 152.2 17.08 152.9 17.86 153.76 18.49 154.76 18.96 155.77 19.42 156.91 19.66 158.18 19.66 159.45 19.66 160.59 19.42 161.6 18.96 162.6 18.49 163.46 17.86 164.16 17.08 164.86 16.3 165.39 15.39 165.77 14.35 166.14 13.31 166.33 12.23 166.33 11.09L166.33 11.09ZM168.51 11.09C168.51 12.6 168.25 13.99 167.73 15.26 167.21 16.53 166.48 17.63 165.56 18.55 164.63 19.47 163.54 20.2 162.28 20.72 161.02 21.24 159.65 21.5 158.18 21.5 156.71 21.5 155.34 21.24 154.08 20.72 152.82 20.2 151.73 19.47 150.8 18.55 149.88 17.63 149.15 16.53 148.63 15.26 148.11 13.99 147.85 12.6 147.85 11.09 147.85 9.58 148.11 8.19 148.63 6.92 149.15 5.65 149.88 4.55 150.8 3.63 151.73 2.7 152.82 1.98 154.08 1.46 155.34 0.93 156.71 0.67 158.18 0.67 159.65 0.67 161.02 0.93 162.28 1.46 163.54 1.98 164.63 2.7 165.56 3.63 166.48 4.55 167.21 5.65 167.73 6.92 168.25 8.19 168.51 9.58 168.51 11.09L168.51 11.09ZM186.88 17.98L186.94 17.98 186.94 1.18 188.95 1.18 188.95 21 186.43 21 174.62 4.03 174.56 4.03 174.56 21 172.54 21 172.54 1.18 175.06 1.18 186.88 17.98Z" id="sampression-copy-4"/></g></g></g></g></svg>