<?xml version="1.0" encoding="UTF-8" standalone="no"?>
<svg width="240px" height="45px" viewBox="0 0 240 45" version="1.1" xmlns="http://www.w3.org/2000/svg" xmlns:xlink="http://www.w3.org/1999/xlink" xmlns:sketch="http://www.bohemiancoding.com/sketch/ns">
    <!-- Generator: Sketch 3.5.1 (25234) - http://www.bohemiancoding.com/sketch -->
    <title>Page 1 Copy 3 + sampression copy 4</title>
    <desc>Created with Sketch.</desc>
    <defs>
        <path id="path-1" d="M0,0.122857143 L42.8771429,0.122857143 L42.8771429,43 L0,43 L0,0.122857143 Z"></path>
    </defs>
    <g id="Home" stroke="none" stroke-width="1" fill="none" fill-rule="evenodd" sketch:type="MSPage">
        <g id="sam-mainsite---theme-detail---cupon" sketch:type="MSArtboardGroup" transform="translate(-134.000000, -56.000000)">
            <g id="Page-1-Copy-3-+-sampression-copy-4" sketch:type="MSLayerGroup" transform="translate(135.000000, 57.000000)">
                <g id="Page-1-Copy-3">
                    <path d="M42.8771429,21.5614286 C42.8771429,33.4015065 33.2786494,43 21.4385714,43 C9.59849351,43 0,33.4015065 0,21.5614286 C0,9.72135065 9.59849351,0.122857143 21.4385714,0.122857143 C33.2786494,0.122857143 42.8771429,9.72135065 42.8771429,21.5614286" id="Fill-1" stroke="#57B94A" fill="#57B94A" sketch:type="MSShapeGroup"></path>
                    <path d="M25.9023623,8.385 C25.9023623,9.2221039 25.2238558,9.90005195 24.3873104,9.90005195 C23.5502065,9.90005195 22.8717,9.2221039 22.8717,8.385 C22.8717,7.5478961 23.5502065,6.86994805 24.3873104,6.86994805 C25.2238558,6.86994805 25.9023623,7.5478961 25.9023623,8.385" id="Fill-3" fill="#FFFFFF" sketch:type="MSShapeGroup"></path>
                    <mask id="mask-2" sketch:name="Clip 6" fill="white">
                        <use xlink:href="#path-1"></use>
                    </mask>
                    <g id="Clip-6"></g>
                    <path d="M25.4677273,13.6538961 L21.0001948,13.6538961 L21.0001948,19.7967532 L25.4677273,19.7967532 L25.4677273,13.6538961 Z M11.5066883,10.8616883 L29.8810909,10.8616883 L29.9464286,10.8616883 C30.6506234,10.8616883 31.2213506,11.5591818 31.2213506,12.2505325 C31.2213506,12.9413247 30.6199091,13.6538961 29.9157143,13.6538961 L27.8785195,13.6538961 L27.8232338,13.6538961 L27.8271429,31.5061558 C27.8271429,32.1969481 27.3653117,32.7073636 26.6784286,32.7073636 C25.9915455,32.7073636 25.4677273,31.9691039 25.4677273,31.2777532 L25.4677273,31.4207143 L25.4677273,22.588961 L25.4007143,22.588961 L19.8414286,22.588961 C18.1828571,24.8227273 14.2134545,26.3042727 14.2134545,26.3042727 L28.1957143,35.1807013 C28.5642857,35.4476364 28.8842727,35.8290519 28.8842727,36.3377922 C28.8842727,37.0157403 28.3548701,37.5797662 27.6858571,37.5797662 C27.415013,37.5797662 27.3446494,37.5255974 26.9917143,37.3307013 L27.0084675,37.3457792 L11.8289091,27.5267013 C11.2861039,27.2212338 10.865039,26.7175195 10.865039,26.0552078 C10.865039,25.1728701 11.542987,24.5541169 12.3655714,24.3357662 C18.5290909,22.6972987 18.207987,19.8514805 18.207987,19.8514805 L18.207987,15.5721429 L18.207987,15.4576623 C18.207987,14.5245065 17.5328312,13.6538961 16.5321039,13.6538961 L11.6585844,13.6538961 C10.9549481,13.6538961 10.3585325,12.9943766 10.3585325,12.303026 C10.3585325,11.6122338 10.9661169,10.9192078 11.6703117,10.9192078 L11.5066883,10.8616883 Z" id="Fill-5" fill="#FFFFFF" sketch:type="MSShapeGroup" mask="url(#mask-2)"></path>
                </g>
                <text id="sampression-copy-4" sketch:type="MSTextLayer" font-family="Avenir" font-size="28" font-weight="normal" fill="#57B94A">
                    <tspan x="49" y="31">SAMPRESSION</tspan>
                </text>
            </g>
        </g>
    </g>
</svg>